<?xml version="1.0" encoding="UTF-8"?>
<svg id="Layer_1" data-name="Layer 1" xmlns="http://www.w3.org/2000/svg" viewBox="0 0 233.16 270.55">
  <path d="M229.12,0c2.4,1.5,3.74,2.97,4.04,5.97l-36.93,259.41c-.93,3.69-2.77,4.85-6.45,5.17H43.9c-3.82.02-6.04-1.44-6.98-5.17L0,5.98C.06,2.42,1.69,1.47,4.56,0h224.56ZM220.66,11.62H12.48l8.99,63.93c7.87-2.07,15.17-3.83,23.44-3.1,14.45,1.28,26.85,11.3,41.26,12.11,21.51,1.21,36.15-13.85,58.14-12.17,14.41,1.1,26.89,11.18,41.23,12.14,8.83.59,17.32-2.09,25.55-4.82l9.58-68.09ZM209.04,93.53c-8.02,2.01-16.2,3.8-24.56,3.16-21.82-1.67-34.08-17.75-58.28-10.18-15.86,4.96-24.52,11.08-42.67,9.68-16.5-1.27-30.39-13.75-47.47-12.11-4.2.4-8.36,2.21-12.42,3.16l24.3,171.61h137.27l23.83-165.32Z"/>
</svg>